<?xml version="1.0" encoding="iso-8859-1"?>
<!-- Generator: Adobe Illustrator 19.0.0, SVG Export Plug-In . SVG Version: 6.00 Build 0)  -->
<svg version="1.1" id="Layer_1" xmlns="http://www.w3.org/2000/svg" xmlns:xlink="http://www.w3.org/1999/xlink" x="0px" y="0px"
	 viewBox="0 0 505.173 505.173" style="enable-background:new 0 0 505.173 505.173;" xml:space="preserve">
<g transform="translate(1 1)">
	<path style="fill:#ECF4F7;" d="M4.121,226.84h170.667v-34.133H4.121V226.84z M4.121,380.44h170.667v-34.133H4.121V380.44z
		 M208.921,380.44h170.667v-34.133H208.921V380.44z M208.921,226.84h170.667v-34.133H208.921V226.84z"/>
	<g>
		<path style="fill:#80D6FA;" d="M174.787,158.573v34.133H4.121v-34.133c0-51.2,51.2-68.267,68.267-85.333s17.067-25.6,17.067-25.6
			s0,8.533,17.067,25.6S174.787,107.373,174.787,158.573z M379.587,158.573v34.133H208.921v-34.133
			c0-51.2,51.2-68.267,68.267-85.333s17.067-25.6,17.067-25.6s0,8.533,17.067,25.6C328.387,90.307,379.587,107.373,379.587,158.573z
			 M4.121,346.307h170.667V226.84H4.121V346.307z M208.921,346.307h170.667V226.84H208.921V346.307z M174.787,380.44v34.133
			c0,46.933-38.4,85.333-85.333,85.333s-85.333-38.4-85.333-85.333V380.44H174.787z M379.587,380.44v34.133
			c0,46.933-38.4,85.333-85.333,85.333s-85.333-38.4-85.333-85.333V380.44H379.587z"/>
		<path style="fill:#AAB1BA;" d="M311.321,22.04v8.533c0,4.267-3.413,8.533-8.533,8.533h-8.533h-8.533
			c-5.12,0-8.533-4.267-8.533-8.533V22.04v-8.533c0-4.267,3.413-8.533,8.533-8.533h17.067c5.12,0,8.533,4.267,8.533,8.533V22.04z
			 M499.054,329.24c0,18.773-15.36,34.133-34.133,34.133s-34.133-15.36-34.133-34.133c0-12.8,6.827-23.893,17.067-29.867v-12.8
			c0-4.267,3.413-8.533,8.533-8.533h8.533h8.533c5.12,0,8.533,4.267,8.533,8.533v12.8C492.227,306.2,499.054,316.44,499.054,329.24z
			 M106.521,22.04v8.533c0,4.267-4.267,8.533-8.533,8.533h-8.533h-8.533c-4.267,0-8.533-4.267-8.533-8.533V22.04v-8.533
			c0-4.267,4.267-8.533,8.533-8.533h17.067c4.267,0,8.533,4.267,8.533,8.533V22.04z"/>
	</g>
</g>
<path style="fill:#51565F;" d="M295.254,505.173c-49.493,0-89.6-40.107-89.6-89.6v-29.867h-25.6v29.867
	c0,49.493-40.107,89.6-89.6,89.6s-89.6-40.107-89.6-89.6V381.44c0-2.56,1.707-4.267,4.267-4.267h375.467
	c2.56,0,4.267,1.707,4.267,4.267v34.133C384.854,465.067,344.747,505.173,295.254,505.173z M214.187,385.707v29.867
	c0,44.373,36.693,81.067,81.067,81.067s81.067-36.693,81.067-81.067v-29.867H214.187z M9.387,385.707v29.867
	c0,44.373,36.693,81.067,81.067,81.067s81.067-36.693,81.067-81.067v-29.867H9.387z M465.921,368.64
	c-21.333,0-38.4-17.067-38.4-38.4c0-12.8,6.827-24.747,17.067-31.573v-11.093c0-6.827,5.973-12.8,12.8-12.8h4.267V176.64
	c0-71.68-38.4-147.627-145.067-149.333v4.267c0,6.827-5.973,12.8-12.8,12.8h-4.267v4.267l0,0c0,0,0.853,7.68,16.213,22.187
	c4.267,4.267,10.24,7.68,17.067,12.8c22.187,14.507,52.053,34.987,52.053,75.947c0,2.56-1.707,4.267-4.267,4.267
	s-4.267-1.707-4.267-4.267c0-35.84-27.307-53.76-48.64-68.267c-7.68-5.12-13.653-9.387-18.773-13.653
	c-6.827-6.827-11.093-12.8-13.653-17.067c-2.56,4.267-6.827,10.24-13.653,17.067c-4.267,4.267-11.093,8.533-18.773,13.653
	c-21.333,14.507-48.64,32.427-48.64,68.267c0,2.56-1.707,4.267-4.267,4.267c-2.56,0-4.267-1.707-4.267-4.267
	c0-40.107,29.867-60.587,52.053-75.947c6.827-5.12,13.653-8.533,17.067-12.8c14.507-14.507,15.36-22.187,16.213-23.04V43.52h-4.267
	c-6.827,0-12.8-5.973-12.8-12.8v-4.267H111.787v4.267c0,6.827-5.973,12.8-12.8,12.8h-4.267v4.267l0,0c0,0,0.853,7.68,16.213,22.187
	c4.267,4.267,10.24,7.68,17.067,12.8c22.187,14.507,52.053,34.987,52.053,75.947c0,2.56-1.707,4.267-4.267,4.267
	s-4.267-1.707-4.267-4.267c0-35.84-27.307-53.76-48.64-68.267c-7.68-5.12-13.653-9.387-18.773-13.653
	C97.28,69.973,93.014,64,90.454,59.733C87.894,64,83.627,69.973,76.8,76.8c-4.267,4.267-11.093,8.533-18.773,13.653
	C36.693,104.96,9.387,122.88,9.387,158.72c0,2.56-1.707,4.267-4.267,4.267s-4.267-1.707-4.267-4.267
	c0-40.107,29.867-60.587,52.053-75.947c6.827-5.12,13.653-8.533,17.067-12.8c14.507-14.507,15.36-22.187,16.213-23.04v-4.267H81.92
	c-6.827,0-12.8-5.973-12.8-12.8V25.6h-25.6v12.8c0,2.56-1.707,4.267-4.267,4.267s-4.267-1.707-4.267-4.267V4.267
	c0-2.56,1.707-4.267,4.267-4.267s4.267,1.707,4.267,4.267v12.8h25.6v-2.56c0-6.827,5.973-12.8,12.8-12.8h17.067
	c6.827,0,12.8,5.973,12.8,12.8v4.267H273.92v-4.267c0-6.827,5.973-12.8,12.8-12.8h17.067c6.827,0,12.8,5.973,12.8,12.8v4.267
	c93.867,1.707,153.6,63.147,153.6,157.867v98.133h4.267c6.827,0,12.8,5.973,12.8,12.8v11.093
	c10.24,6.827,17.067,18.773,17.067,31.573C504.321,351.573,487.254,368.64,465.921,368.64z M457.387,283.307
	c-2.56,0-4.267,1.707-4.267,4.267v13.653c0,1.707-0.853,2.56-1.707,3.413c-9.387,5.12-15.36,15.36-15.36,25.6
	c0,16.213,13.653,29.867,29.867,29.867s29.867-13.653,29.867-29.867c0-10.24-5.973-20.48-15.36-25.6
	c-1.707-0.853-1.707-2.56-1.707-3.413v-13.653c0-2.56-1.707-4.267-4.267-4.267H457.387z M295.254,35.84h8.533
	c2.56,0,4.267-1.707,4.267-4.267V14.507c0-2.56-1.707-4.267-4.267-4.267h-17.067c-2.56,0-4.267,1.707-4.267,4.267v17.067
	c0,2.56,1.707,4.267,4.267,4.267H295.254z M90.454,35.84h8.533c2.56,0,4.267-1.707,4.267-4.267V14.507
	c0-2.56-1.707-4.267-4.267-4.267H81.921c-2.56,0-4.267,1.707-4.267,4.267v17.067c0,2.56,1.707,4.267,4.267,4.267H90.454z
	 M380.587,351.573H5.121c-2.56,0-4.267-1.707-4.267-4.267s1.707-4.267,4.267-4.267h375.467c2.56,0,4.267,1.707,4.267,4.267
	S383.147,351.573,380.587,351.573z M380.587,317.44c-2.56,0-4.267-1.707-4.267-4.267v-81.067H214.187v81.067
	c0,2.56-1.707,4.267-4.267,4.267c-2.56,0-4.267-1.707-4.267-4.267v-81.067h-25.6v81.067c0,2.56-1.707,4.267-4.267,4.267
	s-4.267-1.707-4.267-4.267v-81.067H9.387v81.067c0,2.56-1.707,4.267-4.267,4.267s-4.267-1.707-4.267-4.267V227.84
	c0-2.56,1.707-4.267,4.267-4.267h375.467c2.56,0,4.267,1.707,4.267,4.267v85.333C384.854,315.733,383.147,317.44,380.587,317.44z
	 M380.587,197.973H5.121c-2.56,0-4.267-1.707-4.267-4.267c0-2.56,1.707-4.267,4.267-4.267h375.467c2.56,0,4.267,1.707,4.267,4.267
	C384.854,196.267,383.147,197.973,380.587,197.973z"/>
<g>
</g>
<g>
</g>
<g>
</g>
<g>
</g>
<g>
</g>
<g>
</g>
<g>
</g>
<g>
</g>
<g>
</g>
<g>
</g>
<g>
</g>
<g>
</g>
<g>
</g>
<g>
</g>
<g>
</g>
</svg>
