<?xml version="1.0" encoding="iso-8859-1"?>
<!-- Generator: Adobe Illustrator 19.0.0, SVG Export Plug-In . SVG Version: 6.00 Build 0)  -->
<svg version="1.1" id="Layer_1" xmlns="http://www.w3.org/2000/svg" xmlns:xlink="http://www.w3.org/1999/xlink" x="0px" y="0px"
	 viewBox="0 0 503.467 503.467" style="enable-background:new 0 0 503.467 503.467;" xml:space="preserve">
<g transform="translate(1 1)">
	<path style="fill:#ECF4F7;" d="M429.507,105.667v128c0,25.6-25.6,34.133-25.6,34.133l-59.733,20.48c0,0-25.6,13.653-42.667-3.413
		l-51.2-68.267c0,0-12.8-17.067-34.133-17.067S182.04,216.6,182.04,216.6l-51.2,68.267c-17.067,17.067-42.667,3.413-42.667,3.413
		L28.44,267.8c0,0-25.6-8.533-25.6-34.133v-128C2.84,68.12,33.56,37.4,71.107,37.4H361.24
		C398.787,37.4,429.507,68.12,429.507,105.667L429.507,105.667z"/>
	<polygon style="fill:#AAB1BA;" points="463.64,122.733 497.773,122.733 497.773,3.267 463.64,3.267 	"/>
	<path style="fill:#80D6FA;" d="M233.24,395.8c0,37.547,30.72,68.267,68.267,68.267h93.867c37.547,0,68.267-30.72,68.267-68.267
		V122.733h34.133V395.8c0,56.32-46.08,102.4-102.4,102.4h-102.4c-56.32,0-102.4-46.08-102.4-102.4
		c-18.773,0-34.133-15.36-34.133-34.133s15.36-34.133,34.133-34.133h51.2c18.773,0,34.133,15.36,34.133,34.133
		s-15.36,34.133-34.133,34.133H233.24z"/>
</g>
<path style="fill:#51565F;" d="M396.373,503.467h-102.4c-57.173,0-104.107-46.08-106.667-102.4
	c-19.627-1.707-34.133-18.773-34.133-38.4c0-21.333,17.067-38.4,38.4-38.4h51.2c21.333,0,38.4,17.067,38.4,38.4
	s-17.067,38.4-38.4,38.4h-4.267c2.56,33.28,29.867,59.733,64,59.733h93.867c34.987,0,64-29.013,64-64V4.267
	c0-2.56,1.707-4.267,4.267-4.267h34.133c2.56,0,4.267,1.707,4.267,4.267V396.8C503.04,455.68,455.253,503.467,396.373,503.467z
	 M191.573,332.8c-16.213,0-29.867,13.653-29.867,29.867s13.653,29.867,29.867,29.867c2.56,0,4.267,1.707,4.267,4.267
	c0,53.76,44.373,98.133,98.133,98.133h102.4c53.76,0,98.133-44.373,98.133-98.133V128h-25.6v268.8
	c0,40.107-32.427,72.533-72.533,72.533h-93.867c-38.4,0-69.973-29.867-72.533-68.267h-4.267c-2.56,0-4.267-1.707-4.267-4.267
	s1.707-4.267,4.267-4.267h17.067c16.213,0,29.867-13.653,29.867-29.867S258.987,332.8,242.773,332.8H191.573z M468.907,119.467h25.6
	V8.533h-25.6V119.467z M323.84,298.667c-7.68,0-17.067-2.56-24.747-10.24l-51.2-69.12c0,0-11.947-15.36-30.72-15.36
	c-18.773,0-30.72,15.36-30.72,15.36l-51.2,68.267c-19.627,19.627-46.933,5.12-47.787,4.267l-58.88-20.48
	c-10.24-3.413-28.16-15.36-28.16-38.4v-128c0-40.107,32.427-72.533,72.533-72.533h290.133c40.107,0,72.533,32.427,72.533,72.533v128
	c0,23.04-18.773,34.987-28.16,38.4l-59.733,20.48C346.027,293.547,336.64,298.667,323.84,298.667z M217.173,196.267
	c23.893,0,36.693,17.92,37.547,18.773l51.2,68.267c14.507,14.507,36.693,2.56,37.547,2.56l60.587-21.333
	c0.853,0,23.04-7.68,23.04-29.867v-128c0-34.987-29.013-64-64-64H72.96c-34.987,0-64,29.013-64,64v128
	c0,22.187,22.187,29.867,23.04,29.867l59.733,20.48c1.707,0.853,23.893,11.947,38.4-2.56l51.2-67.413
	C180.48,214.187,194.133,196.267,217.173,196.267z M370.773,153.6c-0.853,0-2.56,0-3.413-0.853l-51.2-51.2
	c-0.853-0.853-0.853-1.707-0.853-3.413s0-2.56,0.853-3.413c1.707-1.707,4.267-1.707,5.973,0l51.2,51.2
	c0.853,0.853,0.853,1.707,0.853,3.413s0,2.56-0.853,3.413C372.48,153.6,371.627,153.6,370.773,153.6z M148.907,153.6
	c-0.853,0-2.56,0-3.413-0.853l-51.2-51.2c-0.853-0.853-0.853-1.707-0.853-3.413s0-2.56,0.853-3.413c1.707-1.707,4.267-1.707,5.973,0
	l51.2,51.2c0.853,0.853,0.853,1.707,0.853,3.413s0,2.56-0.853,3.413C150.613,153.6,149.76,153.6,148.907,153.6z M379.307,110.933
	c-0.853,0-2.56,0-3.413-0.853l-17.067-17.067c-0.853-0.853-0.853-1.707-0.853-3.413s0-2.56,0.853-3.413
	c1.707-1.707,4.267-1.707,5.973,0l17.067,17.067c0.853,0.853,0.853,1.707,0.853,3.413s0,2.56-0.853,3.413
	C381.013,110.933,380.16,110.933,379.307,110.933z M157.44,110.933c-0.853,0-2.56,0-3.413-0.853L136.96,93.013
	c-0.853-0.853-0.853-1.707-0.853-3.413s0-2.56,0.853-3.413c1.707-1.707,4.267-1.707,5.973,0L160,103.253
	c0.853,0.853,0.853,1.707,0.853,3.413s0,2.56-0.853,3.413C159.147,110.933,158.293,110.933,157.44,110.933z"/>
<g>
</g>
<g>
</g>
<g>
</g>
<g>
</g>
<g>
</g>
<g>
</g>
<g>
</g>
<g>
</g>
<g>
</g>
<g>
</g>
<g>
</g>
<g>
</g>
<g>
</g>
<g>
</g>
<g>
</g>
</svg>
